<?xml version="1.0" encoding="UTF-8" standalone="no"?>
<!-- Created with Inkscape (http://www.inkscape.org/) -->

<svg
   width="57.743092mm"
   height="57.734856mm"
   viewBox="0 0 57.743092 57.734856"
   version="1.1"
   id="svg5"
   xml:space="preserve"
   inkscape:version="1.2.1 (9c6d41e410, 2022-07-14, custom)"
   sodipodi:docname="cmdoret.svg"
   xmlns:inkscape="http://www.inkscape.org/namespaces/inkscape"
   xmlns:sodipodi="http://sodipodi.sourceforge.net/DTD/sodipodi-0.dtd"
   xmlns="http://www.w3.org/2000/svg"
   xmlns:svg="http://www.w3.org/2000/svg"><sodipodi:namedview
     id="namedview7"
     pagecolor="#ffffff"
     bordercolor="#999999"
     borderopacity="1"
     inkscape:showpageshadow="0"
     inkscape:pageopacity="0"
     inkscape:pagecheckerboard="0"
     inkscape:deskcolor="#d1d1d1"
     inkscape:document-units="mm"
     showgrid="false"
     inkscape:zoom="1.4142136"
     inkscape:cx="81.31728"
     inkscape:cy="83.4386"
     inkscape:window-width="2560"
     inkscape:window-height="1375"
     inkscape:window-x="0"
     inkscape:window-y="0"
     inkscape:window-maximized="1"
     inkscape:current-layer="layer1"
     showguides="true" /><defs
     id="defs2"><marker
       style="overflow:visible"
       id="TriangleStart"
       refX="-4.8400002"
       refY="0"
       orient="auto-start-reverse"
       inkscape:stockid="TriangleStart"
       markerWidth="0.86499947"
       markerHeight="0.9999994"
       viewBox="0 0 5.3244081 6.1553851"
       inkscape:isstock="true"
       inkscape:collect="always"
       preserveAspectRatio="xMidYMid"><path
         transform="scale(0.5)"
         style="fill:context-stroke;fill-rule:evenodd;stroke:context-stroke;stroke-width:1pt"
         d="M 5.77,0 -2.88,5 V -5 Z"
         id="path135" /></marker></defs><g
     inkscape:label="Layer 1"
     inkscape:groupmode="layer"
     id="layer1"
     transform="translate(-67.168834,-72.102072)"><text
       xml:space="preserve"
       style="font-style:normal;font-weight:normal;font-size:10.5833px;line-height:1.25;font-family:sans-serif;fill:#000000;fill-opacity:1;stroke:none;stroke-width:0.264583"
       x="41.485825"
       y="71.995399"
       id="text6367"><tspan
         sodipodi:role="line"
         id="tspan6365"
         style="stroke-width:0.264583"
         x="41.485825"
         y="71.995399" /></text><path
       style="fill:#008080;fill-opacity:0;stroke:#497da2;stroke-width:2.4;stroke-linecap:square;stroke-dasharray:none;stroke-opacity:1"
       d="m 112.95211,79.06648 c -11.01715,-8.50395 -26.635204,-7.50603 -36.480464,2.33093 -9.7059,9.7072 -10.81448,25.03292 -2.68801,36.02396"
       id="path10514" /><path
       style="fill:#008080;fill-opacity:0;stroke:#497da2;stroke-width:2.4;stroke-linecap:square;stroke-dasharray:none;stroke-opacity:1;marker-start:url(#TriangleStart);marker-end:url(#TriangleStart)"
       d="M 70.958776,122.11815 109.77711,83.29982"
       id="path10512" /><path
       style="fill:#008080;fill-opacity:0;stroke:#497da2;stroke-width:2.4;stroke-linecap:square;stroke-dasharray:none;stroke-opacity:1;marker-start:url(#TriangleStart);marker-end:url(#TriangleStart)"
       d="m 121.93903,79.52753 -38.870584,38.8706"
       id="path10510" /><path
       style="fill:#008080;fill-opacity:0;stroke:#497da2;stroke-width:2.4;stroke-linecap:square;stroke-dasharray:none;stroke-opacity:1"
       d="m 78.835106,122.63146 c 11.01103,8.75047 26.833534,7.85331 36.784844,-2.08575 9.74981,-9.76182 10.79877,-25.17337 2.57512,-36.15068"
       id="path234-3" /><g
       id="g7846"
       style="stroke:#497da2;stroke-opacity:1"
       transform="matrix(-0.7858604,0.7858604,-0.7858604,-0.7858604,244.91644,113.9625)"><path
         id="rect7389"
         style="fill:none;fill-opacity:1;stroke:#497da2;stroke-width:2.0238;stroke-linecap:butt;stroke-linejoin:bevel;stroke-dasharray:none;stroke-opacity:1;paint-order:markers fill stroke"
         sodipodi:type="inkscape:offset"
         inkscape:radius="3.731528"
         inkscape:original="M 48.111328 62.726562 L 48.111328 75.130859 L 60.515625 75.130859 L 60.515625 62.726562 L 48.111328 62.726562 z "
         d="m 48.111328,58.994141 a 3.7319012,3.7319012 0 0 0 -3.732422,3.732421 v 12.404297 a 3.7319012,3.7319012 0 0 0 3.732422,3.732422 h 12.404297 a 3.7319012,3.7319012 0 0 0 3.732422,-3.732422 V 62.726562 a 3.7319012,3.7319012 0 0 0 -3.732422,-3.732421 z"
         transform="matrix(0.65866063,0,0,0.65866063,50.273178,43.811091)" /><path
         style="fill:none;stroke:#497da2;stroke-width:0.8;stroke-linecap:round;stroke-linejoin:miter;stroke-dasharray:none;stroke-opacity:1"
         d="m 79.359886,86.181617 c -2.285976,0 -2.285976,0 -2.285976,0"
         id="path7444" /><path
         style="fill:none;stroke:#497da2;stroke-width:0.8;stroke-linecap:round;stroke-linejoin:miter;stroke-dasharray:none;stroke-opacity:1"
         d="m 79.359886,92.278582 c -2.285976,0 -2.285976,0 -2.285976,0"
         id="path7653" /><path
         style="fill:none;stroke:#497da2;stroke-width:0.8;stroke-linecap:round;stroke-linejoin:miter;stroke-dasharray:none;stroke-opacity:1"
         d="m 79.359886,90.252284 c -2.285976,0 -2.285976,0 -2.285976,0"
         id="path7655" /><path
         style="fill:none;stroke:#497da2;stroke-width:0.8;stroke-linecap:round;stroke-linejoin:miter;stroke-dasharray:none;stroke-opacity:1"
         d="m 79.359886,88.225986 c -2.285976,0 -2.285976,0 -2.285976,0"
         id="path7657" /><path
         style="fill:none;stroke:#497da2;stroke-width:0.8;stroke-linecap:round;stroke-linejoin:miter;stroke-dasharray:none;stroke-opacity:1"
         d="m 92.564336,86.181617 c 2.285976,0 2.285976,0 2.285976,0"
         id="path7659" /><path
         style="fill:none;stroke:#497da2;stroke-width:0.8;stroke-linecap:round;stroke-linejoin:miter;stroke-dasharray:none;stroke-opacity:1"
         d="m 92.564336,92.278582 c 2.285976,0 2.285976,0 2.285976,0"
         id="path7661" /><path
         style="fill:none;stroke:#497da2;stroke-width:0.8;stroke-linecap:round;stroke-linejoin:miter;stroke-dasharray:none;stroke-opacity:1"
         d="m 92.564336,90.252284 c 2.285976,0 2.285976,0 2.285976,0"
         id="path7663" /><path
         style="fill:none;stroke:#497da2;stroke-width:0.8;stroke-linecap:round;stroke-linejoin:miter;stroke-dasharray:none;stroke-opacity:1"
         d="m 92.564336,88.225986 c 2.285976,0 2.285976,0 2.285976,0"
         id="path7665" /><path
         style="fill:none;stroke:#497da2;stroke-width:0.8;stroke-linecap:round;stroke-linejoin:miter;stroke-dasharray:none;stroke-opacity:1"
         d="m 82.995355,82.690237 c 0,-2.285976 0,-2.285976 0,-2.285976"
         id="path7667" /><path
         style="fill:none;stroke:#497da2;stroke-width:0.8;stroke-linecap:round;stroke-linejoin:miter;stroke-dasharray:none;stroke-opacity:1"
         d="m 89.092321,82.690237 c 0,-2.285976 0,-2.285976 0,-2.285976"
         id="path7669" /><path
         style="fill:none;stroke:#497da2;stroke-width:0.8;stroke-linecap:round;stroke-linejoin:miter;stroke-dasharray:none;stroke-opacity:1"
         d="m 87.066022,82.690237 c 0,-2.285976 0,-2.285976 0,-2.285976"
         id="path7671" /><path
         style="fill:none;stroke:#497da2;stroke-width:0.8;stroke-linecap:round;stroke-linejoin:miter;stroke-dasharray:none;stroke-opacity:1"
         d="m 85.039724,82.690237 c 0,-2.285976 0,-2.285976 0,-2.285976"
         id="path7673" /><path
         style="fill:none;stroke:#497da2;stroke-width:0.8;stroke-linecap:round;stroke-linejoin:miter;stroke-dasharray:none;stroke-opacity:1"
         d="m 82.995355,95.744863 c 0,2.285976 0,2.285976 0,2.285976"
         id="path7675" /><path
         style="fill:none;stroke:#497da2;stroke-width:0.8;stroke-linecap:round;stroke-linejoin:miter;stroke-dasharray:none;stroke-opacity:1"
         d="m 89.092321,95.744863 c 0,2.285976 0,2.285976 0,2.285976"
         id="path7677" /><path
         style="fill:none;stroke:#497da2;stroke-width:0.8;stroke-linecap:round;stroke-linejoin:miter;stroke-dasharray:none;stroke-opacity:1"
         d="m 87.066022,95.744863 c 0,2.285976 0,2.285976 0,2.285976"
         id="path7679" /><path
         style="fill:none;stroke:#497da2;stroke-width:0.8;stroke-linecap:round;stroke-linejoin:miter;stroke-dasharray:none;stroke-opacity:1"
         d="m 85.039724,95.744863 c 0,2.285976 0,2.285976 0,2.285976"
         id="path7681" /><path
         style="fill:none;stroke:#497da2;stroke-width:0.8;stroke-linecap:butt;stroke-linejoin:bevel;stroke-dasharray:none;stroke-opacity:1"
         d="M 89.934736,95.796052 V 92.611976 L 88.988409,91.665647 V 90.18671"
         id="path7683"
         sodipodi:nodetypes="cccc" /><circle
         style="fill:none;fill-opacity:1;stroke:#497da2;stroke-width:0.8;stroke-linecap:round;stroke-linejoin:bevel;stroke-dasharray:none;stroke-opacity:1;paint-order:markers fill stroke"
         id="path7753"
         cx="88.968643"
         cy="89.258751"
         r="0.82630414" /><circle
         style="fill:none;fill-opacity:1;stroke:#497da2;stroke-width:0.8;stroke-linecap:round;stroke-linejoin:bevel;stroke-dasharray:none;stroke-opacity:1;paint-order:markers fill stroke"
         id="path7753-6"
         cx="86.806938"
         cy="92.435356"
         r="0.82630414" /><circle
         style="fill:none;fill-opacity:1;stroke:#497da2;stroke-width:0.8;stroke-linecap:round;stroke-linejoin:bevel;stroke-dasharray:none;stroke-opacity:1;paint-order:markers fill stroke"
         id="path7753-7"
         r="0.82630414"
         cy="88.231285"
         cx="84.239891" /><path
         style="fill:none;stroke:#497da2;stroke-width:0.8;stroke-linecap:butt;stroke-linejoin:bevel;stroke-dasharray:none;stroke-opacity:1"
         d="m 87.289043,82.693165 v 2.486205 l -2.47043,2.470431"
         id="path7800" /><path
         style="fill:none;stroke:#497da2;stroke-width:0.8;stroke-linecap:butt;stroke-linejoin:bevel;stroke-dasharray:none;stroke-opacity:1"
         d="m 79.453048,93.028111 h 3.474551 l 1.011589,-0.584041 h 1.968439"
         id="path7802" /><path
         style="fill:none;stroke:#497da2;stroke-width:0.8;stroke-linecap:round;stroke-linejoin:bevel;stroke-dasharray:none;stroke-opacity:1"
         d="m 79.748926,90.593904 h 5.521513 l 1.153583,-1.153583 v -0.957564 l 1.56745,-1.56745 h 1.94105 v -2.930238 -0.31366 -0.880848"
         id="path7804"
         sodipodi:nodetypes="ccccccccc" /></g><path
       id="path12995"
       style="fill:#497da2;fill-opacity:1;stroke:none;stroke-width:0.13268;stroke-dasharray:none;stroke-opacity:1"
       d="m 87.720827,102.45023 1.072013,-1.07982 c -0.140011,-0.10468 -0.320531,-0.21401 -0.548565,-0.33555 -2.176341,-1.159985 -3.426779,-3.749815 -3.250691,-6.733027 0.08572,-1.45172 0.393691,-2.750862 1.053404,-4.439179 0.851469,-2.17903 1.064631,-3.226519 1.063793,-5.221987 -8.37e-4,-1.581108 -0.04248,-1.910847 -0.357203,-2.866225 -0.463416,-1.40651 -1.2665,-2.593047 -2.358352,-3.511769 -0.47528,0.248461 -0.952068,0.518496 -1.430515,0.810507 0.505911,0.358117 0.955277,0.790273 1.339593,1.296293 0.747208,0.983856 1.145038,2.002297 1.333962,3.414354 0.189251,1.414462 -0.09776,3.141311 -0.841683,5.066988 -0.953458,2.468067 -1.190432,3.47663 -1.269021,5.402097 -0.05513,1.350862 -0.02053,1.970384 0.154572,2.779625 0.325307,1.503541 1.106758,3.017863 2.027574,3.929593 0.874526,0.86589 1.091216,1.02695 1.993801,1.4803 0.0059,0.003 0.0114,0.005 0.01734,0.008 z m -0.109974,-2.695208 c 0.249675,0.03427 0.824138,-0.539844 3.887585,-3.601837 2.073799,-2.072792 3.770686,-3.836062 3.770686,-3.918757 0,-0.08253 -0.09345,-0.227481 -0.20739,-0.322123 -0.179497,-0.148959 -0.720409,0.340933 -4.035229,3.654218 -3.827784,3.826059 -3.827541,3.825992 -3.56286,4.090648 0.0496,0.0496 0.08959,0.08993 0.147208,0.09785 z m -1.493294,-2.276965 c 0.04617,0 1.58833,-1.503641 3.426913,-3.341185 1.838606,-1.837545 3.323149,-3.400446 3.299187,-3.473673 -0.02394,-0.07323 -0.187751,-0.150057 -0.364124,-0.170584 -0.26242,-0.03041 -0.893276,0.536668 -3.472376,3.119938 -2.894669,2.899344 -3.144562,3.18534 -3.062789,3.510906 0.04901,0.194999 0.127024,0.354598 0.173189,0.354598 z m -0.377546,-3.510906 1.786847,-1.782943 c 0.982649,-0.980629 1.786838,-1.831076 1.786838,-1.889892 0,-0.05882 -0.223635,-0.06912 -0.496611,-0.02254 -0.401249,0.06828 -0.74312,0.331532 -1.786411,1.375092 -1.189989,1.190298 -1.290663,1.330686 -1.290663,1.805464 z m 11.076526,-0.675858 1.075484,-1.08241 c -0.298471,-0.638943 -0.86138,-1.40414 -1.5656,-2.056145 -1.821397,-1.686273 -4.561282,-2.441516 -7.542238,-2.078665 -0.691517,0.08417 -1.313569,0.209509 -1.382021,0.277961 -0.145197,0.145113 -0.602983,1.312019 -0.603125,1.537456 -6.7e-5,0.110896 0.192543,0.09891 0.694911,-0.04281 1.10597,-0.312161 3.694059,-0.378216 4.782525,-0.122098 1.897804,0.446551 3.298848,1.467204 4.195425,3.05586 0.115598,0.204835 0.230654,0.373902 0.344639,0.510897 z M 79.818792,91.730025 c 0.732228,0.01056 1.520833,-0.06627 2.448847,-0.226869 0.908634,-0.157287 0.92555,-0.171204 1.245637,-1.036522 h -4.35e-4 c 0.316937,-0.856647 0.306665,-0.947518 -0.09135,-0.796222 -0.824054,0.313309 -2.162734,0.527754 -3.281003,0.526916 -2.090588,-0.0025 -3.570963,-0.575351 -4.916747,-1.902443 -0.205136,-0.202288 -0.39091,-0.413196 -0.561552,-0.631696 -0.283759,0.474216 -0.5565,0.952579 -0.817436,1.435709 0.853371,0.968247 1.948692,1.708451 3.255023,2.147075 0.929538,0.312103 1.77758,0.470454 2.719016,0.484052 z m 1.807625,-2.338437 c 0.09766,0.0075 0.289925,-0.0092 0.49445,-0.04759 0.733601,-0.137631 2.505568,-1.885209 2.674853,-2.638047 0.06711,-0.29889 0.127335,-0.599632 0.136383,-0.668502 0.01558,-0.137707 -0.3226,0.177102 -2.182138,2.03147 -0.686423,0.684505 -1.220343,1.272407 -1.186327,1.306255 0.0085,0.0085 0.03025,0.01382 0.06275,0.01642 z m -3.400504,-0.06837 c 0.317992,0.01449 0.761066,-0.392753 3.444666,-3.068419 v -4.36e-4 c 1.728777,-1.723649 3.142426,-3.193751 3.141588,-3.267146 -8.38e-4,-0.07339 -0.03946,-0.273143 -0.08529,-0.444221 -0.07499,-0.280131 -0.422806,0.0284 -3.505276,3.109113 -1.882134,1.881112 -3.422154,3.458265 -3.422154,3.504848 0,0.04675 0.163931,0.117817 0.364124,0.158033 0.0207,0.0042 0.04114,0.0075 0.06234,0.0084 z M 75.761054,87.92041 c 0.245705,0.03092 0.840359,-0.561174 3.917459,-3.6369 2.096553,-2.095631 3.811815,-3.846016 3.811815,-3.889751 0,-0.04382 -0.106321,-0.175862 -0.236396,-0.293553 -0.222362,-0.201257 -0.458984,0.0084 -3.966388,3.51957 -2.051327,2.05353 -3.771071,3.778042 -3.821341,3.832166 -0.05044,0.05412 0.01944,0.220821 0.154564,0.37019 0.04583,0.05061 0.08362,0.09114 0.140287,0.09828 z" /></g></svg>
